<svg width="65" height="10" viewBox="0 0 65 10" fill="none" xmlns="http://www.w3.org/2000/svg">
<rect x="55" width="10" height="2" fill="#1FA5D4"/>
<rect x="58" y="4" width="2" height="2" fill="#1FA5D4"/>
<rect x="57" y="6" width="2" height="2" fill="#1FA5D4"/>
<rect x="56" y="8" width="2" height="2" fill="#1FA5D4"/>
<rect x="45" width="9" height="2" fill="#B82F00"/>
<rect x="41" y="8" width="9" height="2" fill="#B82F00"/>
<rect x="42" y="6" width="2" height="2" fill="#B82F00"/>
<rect x="43" y="4" width="2" height="2" fill="#B82F00"/>
<rect x="44" y="2" width="2" height="2" fill="#B82F00"/>
<rect x="49" y="6" width="2" height="2" fill="#B82F00"/>
<rect x="50" y="4" width="2" height="2" fill="#B82F00"/>
<rect x="51" y="2" width="2" height="2" fill="#B82F00"/>
<rect x="33" width="10" height="2" fill="#B82F00"/>
<rect x="36" y="4" width="2" height="2" fill="#B82F00"/>
<rect x="35" y="6" width="2" height="2" fill="#B82F00"/>
<rect x="34" y="8" width="2" height="2" fill="#B82F00"/>
<rect x="28" y="1" width="4" height="1" fill="#B82F00"/>
<rect x="29" width="3" height="1" fill="#B82F00"/>
<path d="M30 4H32V10H30V6V4Z" fill="#B82F00"/>
<rect x="26" y="4" width="4" height="2" fill="#B82F00"/>
<rect x="25" y="5" width="1" height="2" fill="#B82F00"/>
<rect x="24" y="6" width="1" height="2" fill="#B82F00"/>
<rect x="23" y="7" width="1" height="1" fill="#B82F00"/>
<rect x="22" y="8" width="2" height="2" fill="#B82F00"/>
<rect x="11" y="8" width="10" height="2" fill="#B82F00"/>
<rect x="12" y="6" width="2" height="2" fill="#B82F00"/>
<rect x="13" y="4" width="2" height="2" fill="#B82F00"/>
<rect x="14" y="2" width="2" height="2" fill="#B82F00"/>
<rect x="15" width="2" height="2" fill="#B82F00"/>
<rect x="1" y="9" width="8" height="1" fill="#B82F00"/>
<rect y="8" width="10" height="1" fill="#B82F00"/>
<rect x="8" y="7" width="2" height="1" fill="#B82F00"/>
<rect y="7" width="3" height="1" fill="#B82F00"/>
<rect x="1" y="6" width="2" height="1" fill="#B82F00"/>
<rect x="1" y="5" width="3" height="1" fill="#B82F00"/>
<rect x="2" y="4" width="2" height="1" fill="#B82F00"/>
<rect x="2" y="3" width="3" height="1" fill="#B82F00"/>
<rect x="4" width="8" height="1" fill="#B82F00"/>
<rect x="3" y="1" width="10" height="1" fill="#B82F00"/>
<rect x="3" y="2" width="2" height="1" fill="#B82F00"/>
<rect x="10" y="2" width="2" height="1" fill="#B82F00"/>
<rect x="4" width="8" height="2" fill="#B82F00"/>
<rect x="10" width="2" height="3" fill="#B82F00"/>
<rect x="3" y="1" width="2" height="3" fill="#B82F00"/>
<rect x="2" y="3" width="2" height="3" fill="#B82F00"/>
<rect x="1" y="5" width="2" height="5" fill="#B82F00"/>
<rect x="1" y="8" width="8" height="2" fill="#B82F00"/>
<rect y="7" width="3" height="2" fill="#B82F00"/>
<rect x="8" y="7" width="2" height="2" fill="#B82F00"/>
<rect x="12" y="1" width="1" height="1" fill="#B82F00"/>
<rect x="11" y="8" width="10" height="2" fill="#B82F00"/>
<rect x="12" y="6" width="2" height="4" fill="#B82F00"/>
<rect x="13" y="4" width="1" height="4" fill="#B82F00"/>
<rect x="14" y="2" width="1" height="4" fill="#B82F00"/>
<rect x="15" width="1" height="4" fill="#B82F00"/>
<rect x="16" width="1" height="2" fill="#B82F00"/>
<rect x="29" width="3" height="2" fill="#B82F00"/>
<rect x="30" y="4" width="2" height="6" fill="#B82F00"/>
<rect x="26" y="4" width="6" height="2" fill="#B82F00"/>
<rect x="25" y="5" width="1" height="2" fill="#B82F00"/>
<rect x="24" y="6" width="1" height="2" fill="#B82F00"/>
<rect x="23" y="7" width="1" height="3" fill="#B82F00"/>
<rect x="22" y="8" width="2" height="2" fill="#B82F00"/>
<rect x="28" y="1" width="4" height="1" fill="#B82F00"/>
<rect x="35" y="6" width="1" height="4" fill="#B82F00"/>
<rect x="36" y="4" width="1" height="4" fill="#B82F00"/>
<rect x="57" y="6" width="1" height="4" fill="#1FA5D4"/>
<rect x="58" y="4" width="1" height="4" fill="#1FA5D4"/>
<rect x="43" y="4" width="1" height="6" fill="#B82F00"/>
<rect x="44" y="2" width="1" height="4" fill="#B82F00"/>
<rect x="45" width="1" height="4" fill="#B82F00"/>
<rect x="51" width="1" height="6" fill="#B82F00"/>
<rect x="49" y="6" width="1" height="4" fill="#B82F00"/>
<rect x="50" y="4" width="1" height="4" fill="#B82F00"/>
<rect x="52" width="1" height="4" fill="#B82F00"/>
</svg>
