<svg width="64" height="64" viewBox="0 0 64 64" fill="none" xmlns="http://www.w3.org/2000/svg">
<path d="M10.9814 42.9594C10.4934 41.4956 10.2299 39.5194 10.2299 36.943C10.2299 34.3666 10.4739 32.4392 10.9814 30.9265C12.3721 26.5691 16.0659 24.2074 20.9357 24.2074C22.5411 24.1716 24.1345 24.4932 25.6003 25.1489C27.0662 25.8047 28.368 26.7781 29.4114 27.9988C29.5578 28.2037 29.6066 28.5063 29.3626 28.7014L26.2153 31.4828C25.9713 31.6877 25.7274 31.6389 25.5127 31.3852C24.9881 30.7077 24.3116 30.163 23.5377 29.7951C22.7638 29.4272 21.9143 29.2465 21.0576 29.2675C18.9009 29.2675 17.2516 30.3312 16.5538 32.4538C16.1537 33.6639 16.0659 35.079 16.0659 36.9332C16.0659 38.7874 16.1635 40.2611 16.5538 41.4858C17.2565 43.545 18.896 44.6331 21.0576 44.6331C22.7948 44.6819 24.4489 43.8914 25.5127 42.5154C25.7176 42.2714 25.9616 42.2714 26.2153 42.4666L29.3626 45.248C29.6066 45.4529 29.5578 45.7066 29.4114 45.9506C27.4596 48.2245 24.6539 49.7078 20.9357 49.7078C16.0952 49.7078 12.3769 47.3364 10.9814 42.9887M0.00244141 2.74231H5.61391V61.0528H0.00244141V2.74231Z" fill="white"/>
<path d="M0.109802 2.7179H40.4977V8.52454H0.109802V2.7179Z" fill="white"/>
<path d="M34.8326 2.7179H40.4928V56.7588H34.8326V2.7179Z" fill="white"/>
<path d="M0.182983 55.6267H40.5465V61.287H0.182983V55.6267ZM45.9238 55.6121V60.2135C45.9238 60.516 46.1287 60.721 46.4117 60.721H63.4803C63.7829 60.721 63.9878 60.516 63.9878 60.2135V55.6121C63.9878 55.3096 63.7829 55.1241 63.4803 55.1241H46.402C46.0994 55.1241 45.914 55.3291 45.914 55.6121" fill="white"/>
</svg>
