<svg width="600" height="600" viewBox="0 0 600 600" fill="none" xmlns="http://www.w3.org/2000/svg">
<path fill-rule="evenodd" clip-rule="evenodd" d="M0 300C0 134.315 134.315 0 300 0C465.687 0 600 134.315 600 300C600 465.687 465.687 600 300 600C134.315 600 0 465.687 0 300ZM69.0297 333.333C85.204 446.41 182.451 533.333 300 533.333C417.55 533.333 514.797 446.41 530.97 333.333H394.31C380.58 372.173 343.54 400 300 400C256.46 400 219.417 372.173 205.689 333.333H69.0297ZM530.97 266.667C514.797 153.59 417.55 66.6667 300 66.6667C182.451 66.6667 85.204 153.59 69.0297 266.667H205.689C219.417 227.827 256.46 200 300 200C343.54 200 380.58 227.827 394.31 266.667H530.97ZM300 333.333C318.41 333.333 333.333 318.41 333.333 300C333.333 281.59 318.41 266.667 300 266.667C281.59 266.667 266.667 281.59 266.667 300C266.667 318.41 281.59 333.333 300 333.333Z" fill="white"/>
</svg>
