<svg width="301" height="74" viewBox="0 0 301 74" fill="none" xmlns="http://www.w3.org/2000/svg">
<line x1="293" y1="19" x2="297" y2="19" stroke="white" stroke-width="2"/>
<line x1="277" y1="3" x2="281" y2="3" stroke="white" stroke-width="2"/>
<line x1="291" y1="17" x2="295" y2="17" stroke="white" stroke-width="2"/>
<line x1="279" y1="5" x2="283" y2="5" stroke="white" stroke-width="2"/>
<line x1="281" y1="7" x2="285" y2="7" stroke="white" stroke-width="2"/>
<line x1="283" y1="9" x2="287" y2="9" stroke="white" stroke-width="2"/>
<line x1="285" y1="11" x2="289" y2="11" stroke="white" stroke-width="2"/>
<line x1="287" y1="13" x2="291" y2="13" stroke="white" stroke-width="2"/>
<line x1="289" y1="15" x2="293" y2="15" stroke="white" stroke-width="2"/>
<line x1="295" y1="21" x2="299" y2="21" stroke="white" stroke-width="2"/>
<line x1="209" y1="2" x2="209" y2="72" stroke="white" stroke-width="4"/>
<line x1="299" y1="22" x2="299" y2="72" stroke="white" stroke-width="4"/>
<line x1="207" y1="73" x2="301" y2="73" stroke="white" stroke-width="2"/>
<line x1="207" y1="1" x2="279" y2="1" stroke="white" stroke-width="2"/>
<rect x="1.5" y="1.5" width="201" height="71" stroke="white" stroke-width="3"/>
</svg>
